<svg width="124" height="34" viewBox="0 0 124 34" fill="none" xmlns="http://www.w3.org/2000/svg">
<path fill-rule="evenodd" clip-rule="evenodd" d="M0.909394 30.3248C2.09555 32.3811 4.22096 33.6088 6.59485 33.6088H6.59488C9.28696 33.6088 11.7967 32.1611 13.1445 29.8307L16.298 24.3785H0.595953C-0.264099 26.2948 -0.159676 28.4714 0.909394 30.3248Z" fill="#BDBDBD"/>
<path fill-rule="evenodd" clip-rule="evenodd" d="M27.2536 29.8256C28.6009 32.1591 31.1117 33.6088 33.8062 33.6088H33.8078C36.1819 33.6088 38.3079 32.3813 39.4949 30.3252C40.5647 28.4724 40.6703 26.2954 39.812 24.3785H24.1087L27.2536 29.8256Z" fill="#BDBDBD"/>
<path fill-rule="evenodd" clip-rule="evenodd" d="M38.4202 21.8973L32.7813 12.1334H7.62732L1.98845 21.8973H38.4202Z" fill="#BDBDBD"/>
<path fill-rule="evenodd" clip-rule="evenodd" d="M20.51 0.0247803H19.9107C16.6498 0.0247803 13.6109 1.77898 11.98 4.60277L9.06126 9.65209H31.3506L28.4402 4.60177C26.8099 1.77898 23.771 0.0247803 20.51 0.0247803Z" fill="#BDBDBD"/>
<path fill-rule="evenodd" clip-rule="evenodd" d="M50.6359 20.5804C50.6359 18.629 51.4996 17.1895 53.1311 16.5497C53.8669 16.2618 55.1464 16.1019 56.9698 16.1019H57.9294C58.7292 16.1019 59.433 16.1338 60.0727 16.1978V14.3744C60.0727 12.0393 58.8891 11.2395 56.202 11.2395C55.0824 11.2395 53.9948 11.3994 52.9072 11.7193C52.4273 11.8473 52.1714 11.8473 52.0755 11.4634L51.9155 10.7916C51.7876 10.4078 51.8835 10.1839 52.2674 10.0879C53.6429 9.67204 55.0184 9.44812 56.362 9.44812C60.4566 9.44812 62.152 10.8236 62.152 14.1505V25.0908C62.152 25.3467 62.088 25.4107 61.8001 25.4107H60.7445C60.4566 25.4107 60.3287 25.3148 60.3287 25.0908L60.2647 24.0032H60.2007C59.497 25.1228 58.3773 25.6986 56.8098 25.6986H55.2104C53.8029 25.6986 52.5233 25.2828 51.7876 24.547C51.0198 23.7793 50.6359 22.7876 50.6359 21.54V20.5804ZM52.7472 21.2841C52.7472 22.2758 52.9712 22.9475 53.419 23.3634C53.8349 23.7473 54.4746 23.9392 55.3703 23.9392H56.6819C58.8252 23.9392 60.0727 22.7876 60.0727 20.6124V17.9572C59.5609 17.8933 58.9211 17.8613 58.1534 17.8613H56.362C55.0184 17.8613 54.0908 18.0852 53.5469 18.501C53.0031 18.9169 52.7472 19.6207 52.7472 20.6124V21.2841Z" fill="#BDBDBD"/>
<path fill-rule="evenodd" clip-rule="evenodd" d="M66.5021 4.10594C66.5021 3.88202 66.63 3.75403 66.886 3.75403H68.1976C68.4534 3.75403 68.5814 3.88202 68.5814 4.10594V21.2201C68.5814 22.3717 68.6134 22.7556 68.8693 23.2354C69.0293 23.4594 69.4131 23.5873 70.0209 23.5873H70.8846C71.0766 23.5873 71.2685 23.6193 71.2685 23.9392V25.0268C71.2685 25.2828 71.1725 25.4107 70.9486 25.4107H69.733C68.5814 25.4107 67.7497 25.1548 67.2699 24.675C66.758 24.1311 66.5021 23.1395 66.5021 21.732V4.10594Z" fill="#BDBDBD"/>
<path fill-rule="evenodd" clip-rule="evenodd" d="M74.4033 5.51347C74.4033 4.48981 74.9791 4.00995 75.8749 4.00995H76.0028C76.9305 4.00995 77.4103 4.52178 77.4103 5.51347V5.70538C77.4103 6.72904 76.8665 7.24086 76.0028 7.24086H75.8749C74.8192 7.24086 74.4033 6.76104 74.4033 5.70538V5.51347ZM74.8832 10.0879C74.8832 9.86396 75.0111 9.73604 75.267 9.73604H76.5786C76.8345 9.73604 76.9625 9.86396 76.9625 10.0879V25.1548C76.9625 25.3148 76.8665 25.4107 76.6746 25.4107H75.1391C74.9791 25.4107 74.8832 25.3148 74.8832 25.1548V10.0879Z" fill="#BDBDBD"/>
<path fill-rule="evenodd" clip-rule="evenodd" d="M81.0247 16.9975C81.0247 11.3355 82.912 9.44812 87.1666 9.44812C89.2139 9.44812 90.6534 10.0879 91.5171 11.3675H91.5811L91.741 10.1199C91.773 9.86395 91.9329 9.73603 92.2208 9.73603H92.9886C93.3405 9.73603 93.4365 9.79999 93.4365 10.1519V30.7209C93.4365 30.9448 93.3405 31.0728 93.1166 31.0728H91.677C91.4531 31.0728 91.3572 30.9448 91.3572 30.7209V24.0032H91.2932C90.3975 25.1228 88.99 25.6986 87.0706 25.6986C82.7201 25.6986 81.0247 23.6193 81.0247 18.501V16.9975ZM83.136 18.3411C83.136 20.5164 83.4878 22.0198 84.1916 22.8196C84.8634 23.5873 85.759 23.9072 87.3266 23.9072C89.8856 23.9072 91.3572 22.5957 91.3572 20.0685V15.3341C91.3572 12.743 89.8856 11.2395 87.1986 11.2395C85.791 11.2395 84.9593 11.5274 84.3196 12.1992C83.5198 13.0629 83.136 14.7583 83.136 17.2854V18.3411Z" fill="#BDBDBD"/>
<path fill-rule="evenodd" clip-rule="evenodd" d="M97.5947 10.2478C97.5947 9.95994 97.7866 9.73602 98.0425 9.73602H99.2261C99.5141 9.73602 99.674 9.89594 99.674 10.1839V20.6443C99.674 21.9239 99.8979 22.6277 100.506 23.1395C101.05 23.6513 102.009 23.9072 103.385 23.9072C104.696 23.9072 105.688 23.6193 106.328 23.0115C106.872 22.4997 107.063 21.9239 107.063 20.6443V10.1519C107.063 9.89594 107.223 9.73602 107.447 9.73602H108.791C109.015 9.73602 109.143 9.86395 109.143 10.1519V20.9002C109.143 22.5317 108.663 23.7473 107.735 24.547C106.808 25.3467 105.56 25.6986 103.385 25.6986C101.401 25.6986 99.9619 25.3147 99.0342 24.547C98.0745 23.7473 97.5947 22.5317 97.5947 20.9002V10.2478Z" fill="#BDBDBD"/>
<path fill-rule="evenodd" clip-rule="evenodd" d="M112.469 20.5804C112.469 18.629 113.333 17.1895 114.965 16.5497C115.7 16.2618 116.98 16.1019 118.803 16.1019H119.763C120.563 16.1019 121.267 16.1338 121.906 16.1978V14.3744C121.906 12.0393 120.723 11.2395 118.036 11.2395C116.916 11.2395 115.828 11.3994 114.741 11.7193C114.261 11.8473 114.005 11.8473 113.909 11.4634L113.749 10.7916C113.621 10.4078 113.717 10.1839 114.101 10.0879C115.476 9.67204 116.852 9.44812 118.196 9.44812C122.29 9.44812 123.986 10.8236 123.986 14.1505V25.0908C123.986 25.3467 123.922 25.4107 123.634 25.4107H122.578C122.29 25.4107 122.162 25.3148 122.162 25.0908L122.098 24.0032H122.034C121.33 25.1228 120.211 25.6986 118.643 25.6986H117.044C115.636 25.6986 114.357 25.2828 113.621 24.547C112.853 23.7793 112.469 22.7876 112.469 21.54V20.5804ZM114.581 21.2841C114.581 22.2758 114.805 22.9475 115.253 23.3634C115.668 23.7473 116.308 23.9392 117.204 23.9392H118.515C120.659 23.9392 121.906 22.7876 121.906 20.6124V17.9572C121.394 17.8933 120.755 17.8613 119.987 17.8613H118.196C116.852 17.8613 115.924 18.0852 115.381 18.501C114.837 18.9169 114.581 19.6207 114.581 20.6124V21.2841Z" fill="#BDBDBD"/>
</svg>
