<?xml version="1.0" encoding="utf-8"?>
<!-- Generator: Adobe Illustrator 19.0.0, SVG Export Plug-In . SVG Version: 6.00 Build 0)  -->
<svg version="1.1" id="Layer_1" xmlns="http://www.w3.org/2000/svg" xmlns:xlink="http://www.w3.org/1999/xlink" x="0px" y="0px"
	 viewBox="0 0 339 148.3" style="enable-background:new 0 0 339 148.3;" xml:space="preserve">
<style type="text/css">
	.st0{fill:#C7C8CA;}
	.st1{fill:#D1D3D4;}
	.st2{fill:#BCBEC0;}
	.st3{fill:#00C5A9;}
	.st4{fill:#00A887;}
	.st5{fill:#77DBC6;}
	.st6{fill:#0098CE;}
	.st7{fill:#4EBCDF;}
	.st8{fill:#6D6E71;}
</style>
<g id="XMLID_2432_">
	<g id="XMLID_2433_">
		<g id="XMLID_2434_">
			<g id="XMLID_2435_">
				<g id="XMLID_2436_">
					<path id="XMLID_2437_" class="st0" d="M27.7,83C52.6,31.6,80.3,26.5,94,27.8v-25H54.5c-13.4,14-25.1,38.2-27,79.6
						C27.6,82.7,27.6,82.8,27.7,83z"/>
					<path id="XMLID_2438_" class="st1" d="M2.7,47.3c6.8,5.6,15.6,15.9,24.8,35.2c2-41.4,13.6-65.6,27-79.6H2.7V47.3z"/>
					<path id="XMLID_2439_" class="st0" d="M30.1,88.2C20,65.2,10.1,53.4,2.7,47.3v73.8h54.1C46.8,114.3,37,103.9,30.1,88.2z"/>
					<path id="XMLID_2440_" class="st2" d="M27.7,83c0.8,1.7,1.6,3.4,2.4,5.2c2.3,5.3,5,10,7.9,14.2C55,85.1,79.8,86,94,88.3V27.8
						C80.3,26.5,52.6,31.6,27.7,83z"/>
					<path id="XMLID_2441_" class="st1" d="M38,102.4c5.7,8.1,12.2,14.2,18.8,18.7H94V88.3C79.8,86,55,85.1,38,102.4z"/>
				</g>
				<g id="XMLID_2442_">
					<path id="XMLID_2443_" class="st3" d="M22,20.7c1.5,0.7,2.6,1.7,3.2,3c1.1,2.5,1.7,8.5,1.7,17.9v41.2c0,8.9-0.7,15.1-2,18.5
						c-0.5,1.3-1.2,2.5-2.1,3.3c8.3-2.5,12.8-8.6,15.2-13.6l0-0.1l0.1-6.6V36.2C34.2,25.3,26.7,21.8,22,20.7z"/>
					<path id="XMLID_2444_" class="st4" d="M22.9,104.7c-1.3,1.3-3,2.2-5.1,2.5c-1.7,0.2-2.5,0.9-2.5,1.9c0,0.7,0.4,1.6,2.1,1.6
						c0.8,0,2.2-0.1,4-0.3c1.4-0.2,3.5-0.3,6.2-0.3l5.4-0.1l5,0.1c3.3,0,5.8,0,7.3,0.1c2.4,0.2,3.9,0.3,4.7,0.3
						c1.1,0,1.9-0.2,2.3-0.7c0.3-0.3,0.4-0.8,0.4-1.3c-0.1-1-0.9-1.4-2.4-1.4c-1.3,0-3.2-0.3-5.7-1c-3.5-0.9-5.6-4-6.1-9.3l-0.2-5.6
						C35.7,96.1,31.1,102.2,22.9,104.7z"/>
					<path id="XMLID_2445_" class="st5" d="M42.2,16c-0.3,0-0.5,0-0.8,0.1c-5.6,0.5-10,0.7-13,0.7c-1.9,0-4.3-0.2-7.2-0.6
						c-1.5-0.2-2.7-0.3-3.6-0.3c-1.9,0-2.9,0.6-3,1.9c0,0.7,0.3,1.5,2,1.7c2.1,0.2,3.9,0.7,5.3,1.3c4.6,1.1,12.2,4.5,16.2,15.4v-8.5
						l0.1-2c0-1.8,0.3-3.1,1-3.7c0.6-0.6,1.9-0.9,3.7-0.9c7.2,0,13.3,1.8,18.3,5.4C56.4,20.6,48.5,17.6,42.2,16z"/>
					<path id="XMLID_2446_" class="st6" d="M77.8,27.9c0.2,8.2-1.3,18.6-8.5,24.6c-1,2.4-2.5,4.5-4.5,6.2c-4,3.5-9.3,5.3-15.9,5.3
						c-2.3,0-4.1-0.2-5.1-0.5c-0.6-0.1-1.1-0.2-1.5-0.2c-1.2,0-1.5,0.6-1.6,1c-0.1,0.9,1.1,1.6,3.7,2.3c2.5,0.6,5.2,0.9,8.1,0.9
						c6.3,0,12.3-1.9,17.9-5.7c7.5-5.1,11.3-12.3,11.3-21.2C81.8,35.8,80.5,31.5,77.8,27.9z"/>
					<path id="XMLID_2447_" class="st7" d="M77.8,27.9c-1.4-1.9-3.1-3.7-5.2-5.2c-6.1-4.6-14.1-6.9-23.9-6.9c-1.7,0-3.9,0.1-6.4,0.3
						c6.3,1.6,14.2,4.6,18.9,10.4c0.6,0.4,1.2,0.9,1.7,1.3c5.2,4.4,7.9,10.1,7.9,16.8c0,2.9-0.5,5.5-1.5,7.9
						C76.5,46.5,78,36.1,77.8,27.9z"/>
				</g>
			</g>
			<g id="XMLID_2448_">
				<path id="XMLID_2449_" d="M2,135.3h4.5c2.2,0,3.4,1.2,3.4,2.9c0,1.7-1.2,2.9-3.4,2.9H2.7v5H2V135.3z M6.4,140.5
					c1.7,0,2.7-0.8,2.7-2.2c0-1.4-1-2.2-2.7-2.2H2.7v4.4H6.4z"/>
				<path id="XMLID_2452_" d="M14.8,135.3h4.8c2.1,0,3.3,1.2,3.3,2.9c0,1.5-0.9,2.6-2.7,2.8l3.5,5.1h-0.9l-3.5-5.1h-3.8v5.1h-0.8
					V135.3z M19.5,140.4c1.6,0,2.6-0.8,2.6-2.2c0-1.4-1-2.2-2.6-2.2h-4v4.3H19.5z"/>
				<path id="XMLID_2455_" d="M27.9,140.7c0-3.2,2.3-5.6,5.4-5.6c3,0,5.4,2.4,5.4,5.6c0,3.2-2.3,5.6-5.4,5.6
					C30.2,146.3,27.9,144,27.9,140.7z M37.9,140.7c0-2.8-2-4.9-4.6-4.9c-2.6,0-4.6,2.1-4.6,4.9c0,2.8,2,4.9,4.6,4.9
					C35.9,145.6,37.9,143.5,37.9,140.7z"/>
				<path id="XMLID_2458_" d="M42.2,135.3H43l4.4,9.8l4.3-9.8h0.9l-4.9,10.9H47L42.2,135.3z"/>
				<path id="XMLID_2460_" d="M57.4,135.3h0.8v10.8h-0.8V135.3z"/>
				<path id="XMLID_2462_" d="M63.5,140.7c0-3.3,2.4-5.6,5.4-5.6c1.3,0,2.6,0.4,3.5,1.1v0.8c-1-0.8-2.2-1.2-3.5-1.2
					c-2.7,0-4.7,2-4.7,4.9c0,2.8,2.1,4.9,4.7,4.9c1.3,0,2.6-0.4,3.4-1.3v-4.4h0.8v4.7c-0.9,1-2.3,1.7-4.1,1.7
					C65.9,146.3,63.5,144,63.5,140.7z"/>
				<path id="XMLID_2464_" d="M78.7,135.3h0.8v10.8h-0.8V135.3z"/>
				<path id="XMLID_2466_" d="M89.1,135.3h0.7l4.9,10.9h-0.8l-1.4-3.2h-6.1l-1.4,3.2h-0.8L89.1,135.3z M92.2,142.3l-2.7-6l-2.8,6
					H92.2z"/>
			</g>
		</g>
		<g id="XMLID_2469_">
			<g id="XMLID_2470_">
				<path id="XMLID_2471_" class="st8" d="M149.6,34.2v17.7H146v-9.8l-5.5,7.7l-5.5-7.7v9.8h-3.6V34.2h1.8l7.3,10.1l7.3-10.1H149.6z
					"/>
				<path id="XMLID_2473_" class="st8" d="M166.7,38.2v13.6h-3.5v-1c-1.1,0.8-2.5,1.2-4,1.2c-4.3,0-6.8-3.4-6.8-7.1
					c0-3.6,2.5-7.1,6.8-7.1c1.4,0,2.8,0.5,4,1.1v-0.9H166.7z M163.2,42.3c-0.9-0.7-2.1-1.2-3.4-1.2c-2.5,0-4,1.9-4,3.9
					c0,2.1,1.6,3.9,4,3.9c1.3,0,2.5-0.4,3.4-1.2V42.3z"/>
				<path id="XMLID_2476_" class="st8" d="M182.8,44.3v7.6h-3.5v-7.6c0-2.1-1-3.1-3-3.1c-1.2,0-2.2,0.4-3,1.1v9.7h-3.5V38.2h3.5v0.9
					c1-0.7,2.3-1.1,3.6-1.1C180.9,38,182.8,39.8,182.8,44.3z"/>
				<path id="XMLID_2478_" class="st8" d="M190.2,41.1v4.8c0,2.4,0.4,3.1,2.2,3.1c0.6,0,1.1-0.1,1.6-0.1v2.6
					c-0.2,0.1-1.2,0.5-3.2,0.5c-2.3,0-4.1-1.4-4.1-4.3v-6.7h-1.9v-2.9h1.9v-5.3h3.5v5.3h3.8v2.9H190.2z"/>
				<path id="XMLID_2480_" class="st8" d="M198.7,46c0.4,1.8,1.8,3,3.9,3c1.4,0,2.8-0.7,3.5-1.7l2.2,1.9c-1.3,1.7-3.5,2.8-6.2,2.8
					c-4.1,0-7-3.1-7-7c0-3.9,2.9-7.1,7-7.1c4.2,0,6.6,3,6.6,7.3c0,0.3,0,0.6,0,0.8H198.7z M198.7,43.8h6.8c-0.1-1.6-1-3-3.3-3
					C200.4,40.8,199.1,42.1,198.7,43.8z"/>
				<path id="XMLID_2483_" class="st8" d="M224.3,44.3v7.6h-3.5v-7.6c0-2.1-1-3.1-3-3.1c-1.2,0-2.2,0.4-3,1.1v9.7h-3.5V38.2h3.5v0.9
					c1-0.7,2.3-1.1,3.6-1.1C222.4,38,224.3,39.8,224.3,44.3z"/>
				<path id="XMLID_2485_" class="st8" d="M227.1,34.7c0-1.1,0.9-2.1,2-2.1c1.1,0,2,0.9,2,2.1c0,1.1-0.9,2-2,2
					C228,36.7,227.1,35.8,227.1,34.7z M227.4,38.2h3.5v13.6h-3.5V38.2z"/>
				<path id="XMLID_2488_" class="st8" d="M255.8,44.3v7.6h-3.5v-7.6c0-2.1-1.1-3.1-3-3.1c-1.2,0-2,0.4-2.7,1.1
					c0.1,0.4,0.2,0.9,0.2,2.1v7.6h-3.5v-7.6c0-2.1-0.9-3.1-2.7-3.1c-1.2,0-2.2,0.4-2.9,1.1v9.7h-3.5V38.2h3.5v0.9
					c1-0.7,2.2-1.1,3.5-1.1c2.1,0,3.6,0.5,4.5,1.7c1.2-1.1,2.7-1.7,4.3-1.7C254,38,255.8,39.8,255.8,44.3z"/>
				<path id="XMLID_2490_" class="st8" d="M258.5,34.7c0-1.1,0.9-2.1,2-2.1c1.1,0,2,0.9,2,2.1c0,1.1-0.9,2-2,2
					C259.5,36.7,258.5,35.8,258.5,34.7z M258.8,38.2h3.5v13.6h-3.5V38.2z"/>
				<path id="XMLID_2493_" class="st8" d="M268.4,46c0.4,1.8,1.8,3,3.9,3c1.4,0,2.8-0.7,3.5-1.7l2.2,1.9c-1.3,1.7-3.5,2.8-6.2,2.8
					c-4.1,0-7-3.1-7-7c0-3.9,2.9-7.1,7-7.1c4.2,0,6.6,3,6.6,7.3c0,0.3,0,0.6,0,0.8H268.4z M268.4,43.8h6.8c-0.1-1.6-1-3-3.3-3
					C270.1,40.8,268.8,42.1,268.4,43.8z"/>
				<path id="XMLID_2496_" class="st8" d="M294,44.3v7.6h-3.5v-7.6c0-2.1-1-3.1-3-3.1c-1.2,0-2.2,0.4-3,1.1v9.7H281V38.2h3.5v0.9
					c1-0.7,2.3-1.1,3.6-1.1C292.1,38,294,39.8,294,44.3z"/>
				<path id="XMLID_2498_" class="st8" d="M301.4,41.1v4.8c0,2.4,0.4,3.1,2.2,3.1c0.6,0,1.1-0.1,1.6-0.1v2.6
					c-0.2,0.1-1.2,0.5-3.2,0.5c-2.3,0-4.1-1.4-4.1-4.3v-6.7h-1.9v-2.9h1.9v-5.3h3.5v5.3h3.8v2.9H301.4z"/>
				<path id="XMLID_2500_" class="st8" d="M321.3,45c0,3.9-3.3,7-7.5,7c-4.1,0-7.5-3.1-7.5-7c0-3.9,3.3-7.1,7.5-7.1
					C318,38,321.3,41.1,321.3,45z M317.9,45c0-2.2-1.8-3.9-4-3.9c-2.2,0-4,1.8-4,3.9c0,2.1,1.8,3.9,4,3.9
					C316.1,48.9,317.9,47.2,317.9,45z"/>
				<path id="XMLID_2503_" class="st8" d="M324.3,48.2c1.7,0.7,3,1.1,4.7,1.1c1.6,0,2.2-0.6,2.2-1.3c0-0.8-0.8-1.1-2.9-1.6
					c-2.9-0.7-5.1-1.6-5.1-4.2c0-2.5,2-4.2,5.2-4.2c2.1,0,3.8,0.5,5.3,1.1l-1.2,2.6c-1.3-0.5-2.9-0.9-4.2-0.9c-1.3,0-2,0.5-2,1.2
					c0,0.8,0.8,1.1,3,1.6c3.2,0.7,5,1.8,5,4.2c0,2.6-2,4.3-5.5,4.3c-2.4,0-3.9-0.3-5.9-1.3L324.3,48.2z"/>
			</g>
			<g id="XMLID_2505_">
				<path id="XMLID_2506_" class="st8" d="M137.4,94.1h-5.9v-29h5.9V94.1z"/>
				<path id="XMLID_2508_" class="st8" d="M164.3,81.6v12.5h-5.7V81.6c0-3.5-1.7-5.1-4.9-5.1c-2,0-3.7,0.7-4.9,1.8v15.9h-5.7V71.7
					h5.7v1.4c1.6-1.2,3.7-1.8,6-1.8C161.3,71.3,164.3,74.4,164.3,81.6z"/>
				<path id="XMLID_2510_" class="st8" d="M176.5,76.5v7.9c0,4,0.7,5.1,3.5,5.1c1,0,1.9-0.1,2.6-0.2v4.3c-0.2,0.1-2,0.8-5.2,0.8
					c-3.7,0-6.8-2.3-6.8-7V76.5h-3.2v-4.7h3.2v-8.7h5.8v8.7h6.3v4.7H176.5z"/>
				<path id="XMLID_2512_" class="st8" d="M190.5,84.5c0.6,2.9,3,5,6.4,5c2.3,0,4.5-1.1,5.8-2.8l3.7,3c-2.1,2.8-5.7,4.6-10.1,4.6
					c-6.8,0-11.4-5.1-11.4-11.5c0-6.4,4.7-11.6,11.4-11.6c6.9,0,10.9,5,10.9,11.9c0,0.5,0,0.9,0,1.3H190.5z M190.5,80.9h11.1
					c-0.2-2.6-1.6-5-5.4-5C193.2,75.9,191.1,78.1,190.5,80.9z"/>
				<path id="XMLID_2515_" class="st8" d="M233.7,71.7v18.1c0,5.8-3.2,12.1-11.7,12.1c-5.5,0-6.6-0.5-10-1.5l1.1-4.2
					c2.4,0.7,4.5,1.3,7.6,1.3c3.4,0,6.9-2.1,7.1-5.6c-1.8,1-4,1.6-6.3,1.6c-6.3,0-11.3-4.5-11.3-11.1c0-6.7,5.1-11,11.3-11
					c2.3,0,4.7,0.6,6.5,1.7v-1.3H233.7z M222.4,88.3c2.2,0,4.2-0.7,5.5-1.8v-8.2c-1.4-1.2-3.3-1.8-5.5-1.8c-3.8,0-6.7,2.6-6.7,5.9
					C215.8,85.9,218.6,88.3,222.4,88.3z"/>
				<path id="XMLID_2518_" class="st8" d="M244.6,74.9c1.5-2.1,3.9-3.5,7-3.5c0.4,0,0.9,0.1,1.4,0.2v6.2c0,0-1.6-0.3-2.8-0.3
					c-4.1,0-5.7,2.9-5.7,5.8v10.8h-5.8V71.7h5.8V74.9z"/>
				<path id="XMLID_2520_" class="st8" d="M278.2,71.7v22.4h-5.7v-1.6c-1.9,1.2-4.1,2-6.5,2c-7,0-11.1-5.6-11.1-11.6
					c0-6,4.1-11.6,11.1-11.6c2.3,0,4.7,0.7,6.5,1.9v-1.4H278.2z M272.5,78.4c-1.4-1.2-3.4-1.9-5.5-1.9c-4.1,0-6.6,3-6.6,6.4
					c0,3.4,2.6,6.4,6.6,6.4c2.2,0,4.1-0.7,5.5-1.9V78.4z"/>
				<path id="XMLID_2523_" class="st8" d="M283.4,63.1h5.8v31h-5.8V63.1z"/>
				<path id="XMLID_2525_" class="st8" d="M299.2,84.5c0.6,2.9,3,5,6.4,5c2.3,0,4.5-1.1,5.8-2.8l3.7,3c-2.1,2.8-5.7,4.6-10.1,4.6
					c-6.8,0-11.4-5.1-11.4-11.5c0-6.4,4.7-11.6,11.4-11.6c6.9,0,10.9,5,10.9,11.9c0,0.5,0,0.9,0,1.3H299.2z M299.2,80.9h11.1
					c-0.2-2.6-1.6-5-5.4-5C301.9,75.9,299.7,78.1,299.2,80.9z"/>
				<path id="XMLID_2528_" class="st8" d="M320.7,88c2.8,1.2,4.9,1.8,7.7,1.8c2.6,0,3.7-1,3.7-2.1c0-1.3-1.3-1.9-4.7-2.6
					c-4.8-1.1-8.3-2.6-8.3-7c0-4,3.3-6.8,8.5-6.8c3.5,0,6.3,0.8,8.7,1.8l-1.9,4.2c-2.2-0.8-4.7-1.4-7-1.4c-2.2,0-3.3,0.8-3.3,2
					c0,1.2,1.4,1.8,4.9,2.6c5.2,1.1,8.2,2.9,8.2,7c0,4.2-3.3,7-9,7c-3.9,0-6.4-0.5-9.7-2.1L320.7,88z"/>
			</g>
		</g>
	</g>
	<g id="XMLID_2530_">
		<path id="XMLID_2531_" d="M100.1,128.5c1.9,0,3.3,1.4,3.3,3.3c0,1.9-1.4,3.3-3.3,3.3s-3.4-1.4-3.4-3.3
			C96.7,130,98.2,128.5,100.1,128.5L100.1,128.5z M100.1,129.1c-1.5,0-2.6,1.2-2.6,2.7c0,1.5,1.1,2.7,2.7,2.7c1.5,0,2.6-1.2,2.6-2.7
			C102.7,130.3,101.6,129.1,100.1,129.1L100.1,129.1z M99.5,133.6h-0.6v-3.4c0.4-0.1,0.7-0.1,1.2-0.1c0.6,0,0.9,0.1,1.1,0.3
			c0.2,0.1,0.3,0.4,0.3,0.7c0,0.4-0.3,0.7-0.7,0.8v0c0.3,0.1,0.5,0.4,0.6,0.8c0.1,0.5,0.2,0.7,0.3,0.8H101c-0.1-0.1-0.2-0.4-0.3-0.9
			c-0.1-0.4-0.3-0.6-0.8-0.6h-0.4V133.6z M99.5,131.7h0.4c0.5,0,0.9-0.1,0.9-0.5c0-0.3-0.2-0.6-0.8-0.6c-0.2,0-0.4,0-0.5,0V131.7z"
			/>
	</g>
</g>
</svg>
