<svg width="124" height="33" viewBox="0 0 124 33" fill="none" xmlns="http://www.w3.org/2000/svg">
<path fill-rule="evenodd" clip-rule="evenodd" d="M31.6511 23.871C28.9214 29.0339 23.4944 32.5599 17.2594 32.5599H1.41167V23.871H31.6511Z" fill="#BDBDBD"/>
<path fill-rule="evenodd" clip-rule="evenodd" d="M31.6507 8.71358H0.0118561V0.0247192H17.2594C23.4944 0.0247192 28.921 3.55069 31.6507 8.71358Z" fill="#BDBDBD"/>
<path fill-rule="evenodd" clip-rule="evenodd" d="M33.3282 16.2925C33.3282 17.645 33.151 18.9989 32.8003 20.3321H3.70914V12.2529H32.8003C33.151 13.5857 33.3282 14.9395 33.3282 16.2925Z" fill="#BDBDBD"/>
<path fill-rule="evenodd" clip-rule="evenodd" d="M54.4563 7.71069V21.9268H52.1378L51.9751 20.5438C51.2022 21.7437 49.9616 22.1505 48.7414 22.1505C45.7924 22.1505 43.5756 20.1981 43.5756 16.9034C43.5756 13.446 45.7517 11.6562 48.6804 11.6562C49.7379 11.6562 51.3853 12.2257 51.9751 13.2629V7.71069H54.4563ZM46.0568 16.9034C46.0568 18.6524 47.3177 19.8524 48.9041 19.8524C50.4701 19.8524 51.8124 18.7134 51.8124 16.9034C51.8124 15.1543 50.4701 13.9747 48.9041 13.9747C47.3177 13.9747 46.0568 15.0933 46.0568 16.9034Z" fill="#BDBDBD"/>
<path fill-rule="evenodd" clip-rule="evenodd" d="M66.7199 11.9003L60.5982 26.1163H57.8729L59.744 21.7641L55.7375 11.9003H58.6254L60.1508 16.2322L61.1066 19.0591L62.1439 16.2932L63.9742 11.9003H66.7199Z" fill="#BDBDBD"/>
<path fill-rule="evenodd" clip-rule="evenodd" d="M75.4039 21.9268V16.6797C75.4039 15.1543 74.57 13.9951 72.9837 13.9951C71.4584 13.9951 70.4212 15.2764 70.4212 16.8017V21.9268H67.9603V11.8799H70.1771L70.3398 13.2425C71.3567 12.246 72.3736 11.7375 73.6345 11.7375C75.9937 11.7375 77.8851 13.507 77.8851 16.6593V21.9268H75.4039Z" fill="#BDBDBD"/>
<path fill-rule="evenodd" clip-rule="evenodd" d="M87.9726 11.9003H90.3521V21.9268H88.0133L87.8912 20.4625C87.3218 21.6421 85.7557 22.2115 84.6372 22.2319C81.6679 22.2522 79.4714 20.4218 79.4714 16.9034C79.4714 13.446 81.7695 11.6359 84.6982 11.6562C86.0405 11.6562 87.3218 12.2867 87.8912 13.2832L87.9726 11.9003ZM81.9526 16.9034C81.9526 18.8151 83.2746 19.954 84.9219 19.954C88.8268 19.954 88.8268 13.8731 84.9219 13.8731C83.2746 13.8731 81.9526 14.9916 81.9526 16.9034Z" fill="#BDBDBD"/>
<path fill-rule="evenodd" clip-rule="evenodd" d="M99.3119 21.9268V16.5576C99.3119 15.2357 98.6204 14.0357 97.2578 14.0357C95.9155 14.0357 95.1223 15.2357 95.1223 16.5576V21.9268H92.6411V11.8799H94.9393L95.1223 13.1002C95.6512 12.0833 96.8104 11.7172 97.7662 11.7172C98.9662 11.7172 100.166 12.2053 100.736 13.5883C101.63 12.1647 102.79 11.7579 104.091 11.7579C106.939 11.7579 108.342 13.507 108.342 16.5169V21.9268H105.861V16.5169C105.861 15.195 105.312 14.0764 103.969 14.0764C102.627 14.0764 101.793 15.2357 101.793 16.5576V21.9268H99.3119Z" fill="#BDBDBD"/>
<path fill-rule="evenodd" clip-rule="evenodd" d="M113.374 9.07334C113.374 11.0054 110.446 11.0054 110.446 9.07334C110.446 7.14125 113.374 7.14125 113.374 9.07334ZM110.669 21.9268H113.151V11.8596H110.669V21.9268Z" fill="#BDBDBD"/>
<path fill-rule="evenodd" clip-rule="evenodd" d="M123.99 20.6455C122.831 21.7844 121.611 22.2319 120.126 22.2319C117.218 22.2319 114.798 20.4828 114.798 16.9237C114.798 13.3646 117.218 11.6155 120.126 11.6155C121.55 11.6155 122.648 12.0223 123.746 13.1002L122.18 14.7475C121.591 14.2188 120.858 13.9544 120.167 13.9544C118.499 13.9544 117.279 15.1746 117.279 16.9237C117.279 18.8355 118.581 19.8523 120.126 19.8523C120.919 19.8523 121.713 19.6286 122.323 19.0185L123.99 20.6455Z" fill="#BDBDBD"/>
</svg>
