<svg width="108" height="53" viewBox="0 0 108 53" fill="none" xmlns="http://www.w3.org/2000/svg">
<path fill-rule="evenodd" clip-rule="evenodd" d="M17.7505 11.2077L15.6719 18.3358H26.3631L0.0303345 52.9845L6.96024 28.7303H0.426086L6.76204 0.0210571H40.2229L31.8084 11.2077H17.7505Z" fill="#BDBDBD"/>
<path fill-rule="evenodd" clip-rule="evenodd" d="M45.9336 16.1994C47.1514 16.1994 48.0282 16.3943 48.7589 16.7352L48.3449 19.3901C47.9308 19.1953 47.3462 19.0491 46.6155 19.0491C45.3734 19.0491 44.3016 19.4875 44.0825 20.9002L43.912 21.8988H47.468L47.0296 24.7486H43.4492L42.0608 33.59H38.6753L40.088 24.7486H38.0664L38.5292 21.8988H40.5264L40.7456 20.5592C41.2814 17.125 43.7414 16.1994 45.9336 16.1994Z" fill="#BDBDBD"/>
<path fill-rule="evenodd" clip-rule="evenodd" d="M60.6692 21.8989L58.8181 33.59H55.8466L56.0901 32.0799C55.0915 33.2246 53.6789 33.931 52.047 33.931C49.0268 33.931 47.4923 31.7389 47.9307 29.011L49.0511 21.8989H52.4124L51.3407 28.7918C51.0727 30.3749 51.8521 31.0082 53.07 31.0082C54.3852 31.0082 55.4813 30.2288 56.1145 29.4494L57.308 21.8989H60.6692Z" fill="#BDBDBD"/>
<path fill-rule="evenodd" clip-rule="evenodd" d="M66.6123 39.2895C64.5663 39.2895 62.837 38.8024 61.5948 38.096L62.0576 35.2463C63.2268 36.05 64.6638 36.4397 66.2957 36.4397C68.3903 36.4397 70.2415 35.5873 70.6068 33.3221L70.7773 32.2504C70.144 33.0298 68.8774 33.931 66.8071 33.931C63.105 33.931 61.4244 30.8378 61.9602 27.5252C62.4474 24.4563 64.883 21.5579 68.4634 21.5579C70.4363 21.5579 71.7272 22.4104 72.4579 23.75L72.7745 21.8989H75.7947L73.9924 33.3708C73.3104 37.6576 70.0466 39.2895 66.6123 39.2895ZM67.7571 31.0813C69.3403 31.0813 70.6068 30.1314 71.2644 29.084L71.7272 26.2343C71.4349 25.2357 70.485 24.4076 69.121 24.4076C67.0994 24.4076 65.6381 25.8446 65.3214 27.8419C65.0535 29.5468 65.906 31.0813 67.7571 31.0813Z" fill="#BDBDBD"/>
<path fill-rule="evenodd" clip-rule="evenodd" d="M76.8421 33.59L78.6932 21.8988H82.0788L80.2277 33.59H76.8421ZM80.8366 19.9747C79.7162 19.9747 78.815 19.2683 79.0342 17.8313C79.2291 16.6134 80.1546 16.102 81.1532 16.102C82.298 16.102 83.1749 16.8327 82.9556 18.2454C82.7608 19.4632 81.8352 19.9747 80.8366 19.9747Z" fill="#BDBDBD"/>
<path fill-rule="evenodd" clip-rule="evenodd" d="M88.2895 33.931C84.5873 33.931 82.9066 30.8378 83.4425 27.5252C83.9296 24.4563 86.3166 21.5579 89.9457 21.5579C92.0891 21.5579 93.3556 22.7027 93.9645 23.8474L94.2812 21.8989H97.2526L95.4016 33.59H92.4301L92.698 31.8607C91.7968 33.0055 90.3598 33.931 88.2895 33.931ZM89.2394 31.0813C90.8225 31.0813 92.0891 30.0827 92.7467 29.0353L93.2095 26.3074C92.9415 25.2601 91.9917 24.4076 90.6033 24.4076C88.5818 24.4076 87.1203 25.8934 86.8037 27.8175C86.5358 29.5468 87.3883 31.0813 89.2394 31.0813Z" fill="#BDBDBD"/>
<path fill-rule="evenodd" clip-rule="evenodd" d="M104.925 17.6852L104.267 21.8989H107.97L107.507 24.7486H103.805L103.05 29.4251C102.855 30.6673 103.342 31.0813 104.584 31.0813C105.412 31.0813 106.143 30.9352 106.849 30.6429L106.411 33.4196C105.68 33.7362 104.535 33.931 103.366 33.931C101.15 33.931 99.177 32.7862 99.6397 29.8878L100.444 24.7486H98.4706L98.9334 21.8989H100.882L101.442 18.5133L104.925 17.6852Z" fill="#BDBDBD"/>
</svg>
