<svg width="132" height="51" viewBox="0 0 132 51" fill="none" xmlns="http://www.w3.org/2000/svg">
<path fill-rule="evenodd" clip-rule="evenodd" d="M2.68133 39.719L19.8311 49.6204C21.4881 50.5771 23.5295 50.5771 25.1865 49.6204L42.3362 39.719C43.9931 38.7623 45.0139 36.9944 45.0139 35.0811V15.2783C45.0139 13.365 43.9931 11.597 42.3362 10.6404L25.1865 0.738983C23.5295 -0.217682 21.4881 -0.217682 19.8311 0.738983L2.68133 10.6404C1.02435 11.597 0.00366211 13.365 0.00366211 15.2783V35.0811C0.00366211 36.9944 1.02435 38.7623 2.68133 39.719ZM26.4642 29.5566C22.7663 32.8983 23.2633 35.4444 25.6995 38.1401H25.6929C26.3845 38.9033 26.8094 39.9126 26.8094 41.0236C26.8094 43.3988 24.8839 45.3243 22.5087 45.3243C20.1336 45.3243 18.2081 43.3988 18.2081 41.0236C18.2081 39.9126 18.6331 38.9033 19.3246 38.1401H19.318C21.7542 35.4444 22.2512 32.8983 18.5533 29.5566H18.5633C17.3664 28.4768 16.6095 26.9186 16.6095 25.1796C16.6095 23.4407 17.3664 21.8825 18.5633 20.8028H18.5533C22.2512 17.461 21.7542 14.915 19.318 12.2192H19.3246C18.6331 11.456 18.2081 10.4467 18.2081 9.3357C18.2081 6.96056 20.1336 5.0351 22.5087 5.0351C24.8839 5.0351 26.8094 6.96056 26.8094 9.3357C26.8094 10.4467 26.3845 11.456 25.6929 12.2192H25.6995C23.2633 14.915 22.7663 17.461 26.4642 20.8028H26.4542C27.6512 21.8825 28.4081 23.4407 28.4081 25.1796C28.4081 26.9186 27.6512 28.4768 26.4542 29.5566H26.4642ZM13.9008 29.4715C12.6126 28.046 11.8757 26.6613 12.0055 25.1797C11.8757 23.6981 12.6126 22.3134 13.9008 20.8879H13.8943C14.5858 20.1247 15.0107 19.1155 15.0107 18.0044C15.0107 15.6292 13.0852 13.7038 10.7101 13.7038C8.33492 13.7038 6.40951 15.6292 6.40951 18.0044C6.40951 19.1155 6.83447 20.1247 7.52595 20.8879H7.51936C8.80764 22.3134 9.54452 23.6981 9.41471 25.1797C9.54452 26.6613 8.80764 28.046 7.51936 29.4715H7.52595C6.83447 30.2347 6.40951 31.2439 6.40951 32.355C6.40951 34.7301 8.33492 36.6556 10.7101 36.6556C13.0852 36.6556 15.0107 34.7301 15.0107 32.355C15.0107 31.2439 14.5858 30.2347 13.8943 29.4715H13.9008ZM35.6028 25.1797C35.473 26.6613 36.2099 28.046 37.4981 29.4715H37.4915C38.1831 30.2347 38.608 31.2439 38.608 32.355C38.608 34.7301 36.6826 36.6556 34.3074 36.6556C31.9322 36.6556 30.0068 34.7301 30.0068 32.355C30.0068 31.2439 30.4318 30.2347 31.1233 29.4715H31.1167C32.405 28.046 33.1418 26.6613 33.012 25.1797C33.1418 23.6981 32.405 22.3134 31.1167 20.8879H31.1233C30.4318 20.1247 30.0068 19.1155 30.0068 18.0044C30.0068 15.6292 31.9322 13.7038 34.3074 13.7038C36.6826 13.7038 38.608 15.6292 38.608 18.0044C38.608 19.1155 38.1831 20.1247 37.4915 20.8879H37.4981C36.2099 22.3134 35.473 23.6981 35.6028 25.1797Z" fill="#BDBDBD"/>
<path fill-rule="evenodd" clip-rule="evenodd" d="M59.421 15.8445V28.6332C59.421 29.478 59.7495 29.9707 60.43 29.9707C60.8993 29.9707 61.3217 29.8065 61.7441 29.5953L61.9083 32.2C61.3451 32.4346 60.2892 32.7396 59.1394 32.7396C57.3091 32.7396 56.1358 31.848 56.1358 29.4311V15.8445H59.421Z" fill="#BDBDBD"/>
<path fill-rule="evenodd" clip-rule="evenodd" d="M75.6822 28.7271C75.6822 29.4311 75.87 29.9708 76.527 29.9708C76.9963 29.9708 77.3718 29.8065 77.7707 29.5953L77.9114 32.2C77.3014 32.4816 76.2924 32.7397 75.2364 32.7397C73.8519 32.7397 72.9838 32.1765 72.6317 30.9564C71.787 31.9419 70.426 32.7162 68.7365 32.7162C65.3105 32.7162 62.9874 30.0881 62.9874 26.404C62.9874 22.673 65.3105 20.0214 68.7365 20.0214C70.3321 20.0214 71.5758 20.4673 72.3971 21.2885V20.2326H75.6822V28.7271ZM72.3971 23.9871C71.8339 23.4004 70.7545 22.8842 69.6517 22.8842C67.6102 22.8842 66.3195 24.2921 66.3195 26.404C66.3195 28.469 67.6336 29.8769 69.6517 29.8769C70.731 29.8769 71.74 29.3841 72.3971 28.774V23.9871Z" fill="#BDBDBD"/>
<path fill-rule="evenodd" clip-rule="evenodd" d="M86.8753 32.7396C85.2092 32.7396 84.0125 32.2234 83.1912 31.4022V32.505H79.906V15.8445H83.1912V21.265C84.036 20.5142 85.3031 20.0214 86.8753 20.0214C90.3246 20.0214 92.6478 22.6495 92.6478 26.3571C92.6478 30.0646 90.3246 32.7396 86.8753 32.7396ZM85.9601 22.8842C84.8572 22.8842 83.8247 23.4004 83.1912 24.034V28.7506C83.7543 29.3137 84.8103 29.8769 85.9601 29.8769C87.9781 29.8769 89.2922 28.469 89.2922 26.3571C89.2922 24.2686 87.9781 22.8842 85.9601 22.8842Z" fill="#BDBDBD"/>
<path fill-rule="evenodd" clip-rule="evenodd" d="M100.837 19.9041C104.685 19.9041 107.454 22.673 107.454 26.404C107.454 30.0881 104.685 32.8335 100.837 32.8335C97.0356 32.8335 94.2667 30.0881 94.2667 26.404C94.2667 22.673 97.0356 19.9041 100.837 19.9041ZM100.837 29.8299C102.902 29.8299 104.286 28.3281 104.286 26.404C104.286 24.4329 102.902 22.9076 100.837 22.9076C98.8189 22.9076 97.4345 24.4329 97.4345 26.404C97.4345 28.3281 98.8189 29.8299 100.837 29.8299Z" fill="#BDBDBD"/>
<path fill-rule="evenodd" clip-rule="evenodd" d="M110.81 24.034C110.81 23.3066 110.645 22.7903 109.965 22.7903C109.472 22.7903 108.909 23.025 108.721 23.1423L108.58 20.5611C108.745 20.3968 109.965 20.0214 111.255 20.0214C112.663 20.0214 113.579 20.5846 113.931 21.8752C114.517 20.7254 115.409 20.0214 117.004 20.0214C118.154 20.0214 119.046 20.4438 119.21 20.7254L118.741 23.682C118.553 23.4239 117.615 23.0484 116.488 23.0484C114.916 23.0484 114.306 24.4094 114.095 25.8409V32.505H110.81V24.034Z" fill="#BDBDBD"/>
<path fill-rule="evenodd" clip-rule="evenodd" d="M131.882 31.1675C130.614 32.1999 128.808 32.8335 126.719 32.8335C122.096 32.8335 120.031 30.0177 120.031 26.404C120.031 22.7433 122.566 19.9041 126.508 19.9041C130.239 19.9041 131.999 22.1802 131.999 25.0195C131.999 25.7704 131.882 26.9437 131.741 27.413H123.411C123.716 29.126 124.818 30.0881 126.813 30.0881C128.362 30.0881 129.793 29.4545 130.638 28.8209L131.882 31.1675ZM128.855 24.4563C128.855 23.4708 128.104 22.626 126.438 22.626C124.678 22.626 123.739 23.682 123.504 24.8787H128.831C128.855 24.7614 128.855 24.5737 128.855 24.4563Z" fill="#BDBDBD"/>
</svg>
