<?xml version="1.0" standalone="yes"?>
<svg xmlns="http://www.w3.org/2000/svg" xmlns:xlink="http://www.w3.org/1999/xlink" xmlns:svg="http://www.w3.org/2000/svg" xmlns:dc="http://purl.org/dc/elements/1.1/" xmlns:cc="http://web.resource.org/cc/" xmlns:rdf="http://www.w3.org/1999/02/22-rdf-syntax-ns#" width="1024" height="141">
<path style="fill:#ffffff; stroke:none;" d="M0 0L0 68L1 68C6.60423 29.8812 52.4222 1.02419 89 1L89 0L20 0L25 3L20 9L12 3L16 3L16 0L0 0z"/>
<path style="fill:#010101; stroke:none;" d="M16 0L13 3L13 6L20 9L24 6C22.7203 2.10652 19.95 0.591766 16 0M0 73L4 73C6.27319 23.2534 69.1077 2 110 2L110 0C62.8244 0 7.2484 19.1717 0 73z"/>
<path style="fill:#ffffff; stroke:none;" d="M110 0L110 3C80.2126 3 49.3855 8.66187 27 30.0394C18.0278 38.6076 10.8551 48.2034 6.69907 60C4.98734 64.8587 6.41778 72.7043 0 73L0 81L1 81C4.18663 76.6863 8.64249 68.5613 13.0193 65.7423C17.5772 62.8066 21.3368 65.9563 26 65.0918C30.2333 64.3071 33.6352 61.0749 38 60.3295C47.8021 58.6554 58.2102 65.1233 62 74C57.1135 72.5675 54.5232 68.1122 49.9992 65.8395C39.6233 60.6271 32.8831 66.9369 24 71C19.5904 63.452 12.272 68.3691 14 76C7.03185 78.0407 -1.99065 88.5746 10.0154 91.6821C23.5733 95.1913 42.9785 92.4247 57 91.9846C70.5323 91.5598 64.8246 80.0382 54 80L54 77L64 77C67.1063 67.8697 83.3445 64.3066 89.3966 73.0586C93.5852 79.1158 91.4898 94.634 91.9066 102C92.0436 104.42 91.0084 119.53 85.6026 115.248C80.6781 111.348 87.6511 99.534 82 94C81.9514 99.8739 81.5859 106.662 78.8611 111.98C77.6645 114.315 74.0703 118.128 72.3495 113.833C70.035 108.056 76.8079 100.848 78.3765 95.8302C79.585 91.9645 77.5053 86.9129 77 83L76 83C75.2937 85.8264 73.8323 104.054 70 91C66.2503 92.7422 63.118 95.3352 59 96.3164C44.2529 99.83 10.5563 101.247 1 88L0 88L0 141L169 141L169 128L909 128L909 141L1024 141L1024 0L378 0L210 0L153 0L126.285 0.544754L111 13C110.254 7.30318 112.445 4.28876 117 1L110 0z"/>
<path style="fill:#010101; stroke:none;" d="M111 12L114 12C114.869 6.36679 118.367 2.86934 124 2L124 0C115.597 0.0760345 111.103 3.2951 111 12z"/>
<path style="fill:#626262; stroke:none;" d="M124.333 0.666672L124.667 1.33333L124.333 0.666672z"/>
<path style="fill:#a6a6a6; stroke:none;" d="M79.6667 1.33333L80.3333 1.66667L79.6667 1.33333z"/>
<path style="fill:#6c6c6c; stroke:none;" d="M75 2L75 3L78 3L75 2z"/>
<path style="fill:#4d4d4d; stroke:none;" d="M92 2L92 3L110 3L92 2M119 2L119 3L124 3L119 2z"/>
<path style="fill:#626262; stroke:none;" d="M12.3333 3.66667L12.6667 4.33333L12.3333 3.66667z"/>
<path style="fill:#8d8d8d; stroke:none;" d="M24.3333 3.66667L24.6667 4.33333L24.3333 3.66667z"/>
<path style="fill:#626262; stroke:none;" d="M71 3L71 4L74 4L71 3z"/>
<path style="fill:#878787; stroke:none;" d="M86 3L86 4L92 4L86 3z"/>
<path style="fill:#acacac; stroke:none;" d="M75 5L75 6L86 5L75 5z"/>
<path style="fill:#464646; stroke:none;" d="M110 7L110 11L111 11L110 7z"/>
<path style="fill:#747474; stroke:none;" d="M114 7L114 12L115 12L114 7z"/>
<path style="fill:#464646; stroke:none;" d="M92 9L92 10L105 10L92 9z"/>
<path style="fill:#7d7d7d; stroke:none;" d="M85 10L85 11L88 11L85 10z"/>
<path style="fill:#010101; stroke:none;" d="M17 60C21.787 58.4938 22.895 53.9492 25.5231 50C29.5627 43.9299 34.4276 38.812 40 34.1451C58.6262 18.5455 82.1043 12 106 12L106 10C80.1805 10 56.4913 15.155 36.0008 31.8048C27.6433 38.5958 18.1443 48.8279 17 60z"/>
<path style="fill:#626262; stroke:none;" d="M80 11L80 12L83 12L80 11z"/>
<path style="fill:#9b9b9b; stroke:none;" d="M54.6667 12.3333L55.3333 12.6667L54.6667 12.3333z"/>
<path style="fill:#414141; stroke:none;" d="M89 12L89 13L98 13L89 12z"/>
<path style="fill:#828282; stroke:none;" d="M98 12L98 13L105 13L98 12z"/>
<path style="fill:#8d8d8d; stroke:none;" d="M111 12L111 13L114 13L111 12z"/>
<path style="fill:#b2b2b2; stroke:none;" d="M118 12L118 13L122 13L118 12z"/>
<path style="fill:#666666; stroke:none;" d="M44.6667 13.3333L45.3333 13.6667L44.6667 13.3333z"/>
<path style="fill:#a2a2a2; stroke:none;" d="M70 13L70 14L73 14L70 13z"/>
<path style="fill:#9b9b9b; stroke:none;" d="M86 13L86 14L93 14L86 13z"/>
<path style="fill:#010101; stroke:none;" d="M113 24C104.174 25.3629 101.028 35.4005 108.329 41.2971C112.612 44.7555 118.865 44 124 44L124 42C112.191 41.9661 101.76 30.9089 117 25L122 13C114.674 13.4022 113.062 17.1653 113 24z"/>
<path style="fill:#666666; stroke:none;" d="M122.333 13.6667L122.667 14.3333L122.333 13.6667z"/>
<path style="fill:#c4c4c4; stroke:none;" d="M76 15L76 16L84 15L76 15z"/>
<path style="fill:#6c6c6c; stroke:none;" d="M112 18L110 23L110 24C113.331 23.2861 113.591 20.7622 112 18z"/>
<path style="fill:#666666; stroke:none;" d="M116 18L116 22L117 22L116 18z"/>
<path style="fill:#6c6c6c; stroke:none;" d="M91 19L91 20L98 20L91 19z"/>
<path style="fill:#010101; stroke:none;" d="M31 59C38.9083 56.3956 45.033 43.9669 52 38.76C68.3437 26.5454 87.0074 22 107 22L107 19C85.2108 19.0144 63.1756 23.9294 46 38.0841C39.4668 43.4682 31.9619 50.1434 31 59z"/>
<path style="fill:#4d4d4d; stroke:none;" d="M89 22L89 23L96 23L89 22z"/>
<path style="fill:#b2b2b2; stroke:none;" d="M96 22L96 23L105 23L96 22z"/>
<path style="fill:#626262; stroke:none;" d="M117 22L117 25L118 25L117 22z"/>
<path style="fill:#a2a2a2; stroke:none;" d="M85 23L85 24L91 24L85 23z"/>
<path style="fill:#747474; stroke:none;" d="M114 25L114 26L117 26L114 25z"/>
<path style="fill:#8d8d8d; stroke:none;" d="M89 29L89 30L92 30L89 29z"/>
<path style="fill:#010101; stroke:none;" d="M46 57C52.5028 55.0929 57.4515 47.7302 63 43.7461C73.4737 36.2256 86.1948 32.0014 99 32L99 29C82.3091 29.1382 49.8816 37.762 46 57z"/>
<path style="fill:#666666; stroke:none;" d="M99.3333 29.6667L99.6667 30.3333L99.3333 29.6667z"/>
<path style="fill:#010101; stroke:none;" d="M2 35C5.91117 35.808 8.00482 35.6081 10 32C5.84508 30.3685 3.39392 30.4252 2 35z"/>
<path style="fill:#b6b6b6; stroke:none;" d="M108 30L108 36L109 36L108 30z"/>
<path style="fill:#666666; stroke:none;" d="M74 33L74 34L80 33L74 33z"/>
<path style="fill:#747474; stroke:none;" d="M88 32L88 33L93 33L88 32z"/>
<path style="fill:#929292; stroke:none;" d="M329 32L329 33L334 33L329 32z"/>
<path style="fill:#010101; stroke:none;" d="M327.059 34.0285C318.023 38.9287 324.682 54.577 334.891 48.6821C343.898 43.4817 336.872 28.7063 327.059 34.0285z"/>
<path style="fill:#878787; stroke:none;" d="M334.667 33.3333L335.333 33.6667L334.667 33.3333z"/>
<path style="fill:#a2a2a2; stroke:none;" d="M187 35L187 38L188 38L187 35z"/>
<path style="fill:#414141; stroke:none;" d="M188 35L188 36L224 36C214.44 31.9886 198.387 35 188 35M419 35L419 39L420 39L420 36L434 37L419 35M667 35L667 40L668 40L668 36L705 36C694.964 31.7887 677.911 35 667 35M906 35L905 44L906 44L907 36L920 38C921.769 33.3064 909.007 35 906 35z"/>
<path style="fill:#010101; stroke:none;" d="M172 114L187 114L192 86L207 86C207.849 91.75 210.907 110.645 216.43 113.397C220.42 115.385 227.608 114 232 114L222 84C239.042 81.4456 251.893 55.782 237.811 42.3287C228.222 33.1676 213.129 36 201 36C197.658 36 190.559 34.6641 188.175 37.6034C184.102 42.6263 184.641 53.8711 183.535 60C180.341 77.7161 172.15 95.91 172 114M420 36L404 114L417 114L418 107L420 107C425.48 117.079 441.193 117.626 450 111.362C467.732 98.7498 473.928 49.8325 441 55.3333C435.678 56.2225 432.02 59.7486 428 63L433 36L420 36z"/>
<path style="fill:#878787; stroke:none;" d="M666 36L666 40L667 40L666 36z"/>
<path style="fill:#010101; stroke:none;" d="M668 36L651 114L667 114L672 86L686 86L694 114L711 114L702 84C720.419 80.7166 731.04 52.9272 714.996 40.5324C703.61 31.7361 681.675 36 668 36M907 36L901 64C896.876 60.5517 893.379 57.3776 888 56.0432C848.793 46.3171 840.801 123.552 880 114.606C884.301 113.624 887.492 110.451 891 108L891 114L904 114L920 36L907 36z"/>
<path style="fill:#7d7d7d; stroke:none;" d="M339 37L339 43L340 43L339 37z"/>
<path style="fill:#626262; stroke:none;" d="M93 38L93 39L99 39L93 38z"/>
<path style="fill:#595959; stroke:none;" d="M322 38L322 46L323 46L322 38z"/>
<path style="fill:#010101; stroke:none;" d="M56 62C61.3571 60.3675 64.5632 55.0623 69 51.7608C77.685 45.2982 88.1326 41.09 99 41L99 39C84.7313 39 58.6697 44.6986 56 62z"/>
<path style="fill:#878787; stroke:none;" d="M99.3333 39.6667L99.6667 40.3333L99.3333 39.6667z"/>
<path style="fill:#a2a2a2; stroke:none;" d="M82.6667 40.3333L83.3333 40.6667L82.6667 40.3333z"/>
<path style="fill:#b6b6b6; stroke:none;" d="M432 40L432 44L433 44L432 40z"/>
<path style="fill:#9b9b9b; stroke:none;" d="M79.6667 41.3333L80.3333 41.6667L79.6667 41.3333z"/>
<path style="fill:#525252; stroke:none;" d="M91 41L91 42L99 42L91 41z"/>
<path style="fill:#6c6c6c; stroke:none;" d="M115 41L115 42L124 42L115 41z"/>
<path style="fill:#747474; stroke:none;" d="M186 41L186 44L187 44L186 41z"/>
<path style="fill:#c4c4c4; stroke:none;" d="M81 44L81 45L96 43L81 44z"/>
<path style="fill:#8d8d8d; stroke:none;" d="M124.333 42.6667L124.667 43.3333L124.333 42.6667M111.667 43.3333L112.333 43.6667L111.667 43.3333z"/>
<path style="fill:#414141; stroke:none;" d="M665 43L665 48L666 48L665 43z"/>
<path style="fill:#878787; stroke:none;" d="M116 44L116 45L124 45L116 44z"/>
<path style="fill:#525252; stroke:none;" d="M904 44L904 49L905 49L904 44z"/>
<path style="fill:#6c6c6c; stroke:none;" d="M185 46L185 49L186 49L185 46z"/>
<path style="fill:#4d4d4d; stroke:none;" d="M664 48L663 56L664 56L664 48M201 49L201 50L220 50L201 49z"/>
<path style="fill:#7d7d7d; stroke:none;" d="M242.333 49.6667L242.667 50.3333L242.333 49.6667z"/>
<path style="fill:#4d4d4d; stroke:none;" d="M680 49L680 50L700 50L680 49z"/>
<path style="fill:#414141; stroke:none;" d="M903 49L903 53L904 53L903 49z"/>
<path style="fill:#ffffff; stroke:none;" d="M200 50L197 71C204.427 71 215.27 72.9138 221.891 68.8603C227.4 65.4876 227.892 54.4903 221.941 51.3179C216.117 48.2131 206.424 50 200 50z"/>
<path style="fill:#747474; stroke:none;" d="M220.667 50.3333L221.333 50.6667L220.667 50.3333z"/>
<path style="fill:#6c6c6c; stroke:none;" d="M327 50L327 51L332 51L327 50z"/>
<path style="fill:#ffffff; stroke:none;" d="M680 50L676 71C683.284 71 693.283 72.7517 699.982 69.4275C706.236 66.3238 708.96 55.3008 701.941 51.4568C696.075 48.2437 686.495 50 680 50z"/>
<path style="fill:#414141; stroke:none;" d="M722 50L722 64L723 64L722 50z"/>
<path style="fill:#b2b2b2; stroke:none;" d="M679 51L679 55L680 55L679 51z"/>
<path style="fill:#6c6c6c; stroke:none;" d="M5.33333 52.6667L5.66667 53.3333L5.33333 52.6667z"/>
<path style="fill:#595959; stroke:none;" d="M81 52L81 53L86 53L81 52z"/>
<path style="fill:#929292; stroke:none;" d="M109 52L109 53L112 53L109 52z"/>
<path style="fill:#464646; stroke:none;" d="M126 53L126 54L132 53L126 53z"/>
<path style="fill:#828282; stroke:none;" d="M243 52L243 63L244 63L243 52z"/>
<path style="fill:#010101; stroke:none;" d="M79.3179 54.0278C73.056 58.1927 79.8842 69.0718 86.7215 64.8202C94.3293 60.0895 86.7191 49.1051 79.3179 54.0278M114 54C103.315 51.7763 111.407 63.1662 114 54M128.059 53.5772C120.721 55.7328 124.642 67.1649 131.946 65.3835C140.191 63.3725 136.55 51.0827 128.059 53.5772z"/>
<path style="fill:#828282; stroke:none;" d="M4.33333 54.6667L4.66667 55.3333L4.33333 54.6667z"/>
<path style="fill:#a2a2a2; stroke:none;" d="M22.3333 54.6667L22.6667 55.3333L22.3333 54.6667z"/>
<path style="fill:#7d7d7d; stroke:none;" d="M429 54L429 57L430 57L429 54z"/>
<path style="fill:#a2a2a2; stroke:none;" d="M45.3333 55.6667L45.6667 56.3333L45.3333 55.6667z"/>
<path style="fill:#6c6c6c; stroke:none;" d="M106.333 55.6667L106.667 56.3333L106.333 55.6667z"/>
<path style="fill:#b6b6b6; stroke:none;" d="M226 55L226 64L227 64L226 55z"/>
<path style="fill:#010101; stroke:none;" d="M281 107L280 114L294 114L305 57L292 57C291.75 58.5969 291.628 61.4638 289.276 61.3248C286.208 61.1437 282.963 57.6331 280 56.6096C270.551 53.3457 261.027 55.9203 254.093 63.0432C245.384 71.9904 241.28 87.927 244.901 100C250.332 118.106 268.896 118.82 281 107z"/>
<path style="fill:#929292; stroke:none;" d="M275.667 55.3333L276.333 55.6667L275.667 55.3333z"/>
<path style="fill:#010101; stroke:none;" d="M362 64L363 57L349 57L337 114C340.519 114 348.361 115.474 350.822 112.397C357.862 103.593 353.807 85.9949 359.938 76.0903C364.019 69.4948 377.835 63.5139 381.357 74.0154C383.373 80.0247 379.3 88.0904 378.325 94C377.254 100.489 375.189 107.478 375 114L388 114C390.453 99.5095 398.824 81.7063 396.811 67C394.251 48.2944 370.722 55.7301 362 64z"/>
<path style="fill:#414141; stroke:none;" d="M415 55L413 67L414 67L415 55z"/>
<path style="fill:#929292; stroke:none;" d="M447.667 55.3333L448.333 55.6667L447.667 55.3333z"/>
<path style="fill:#010101; stroke:none;" d="M497 55.5177C460.006 63.4104 465.778 123.984 507 114.471C541.499 106.509 535.879 47.2229 497 55.5177M747 55.5293C710.155 63.9873 717.031 123.938 758 114.471C792.608 106.473 785.985 46.5802 747 55.5293z"/>
<path style="fill:#383838; stroke:none;" d="M811 55L811 56L820 56L811 55z"/>
<path style="fill:#828282; stroke:none;" d="M885.667 55.3333L886.333 55.6667L885.667 55.3333z"/>
<path style="fill:#a2a2a2; stroke:none;" d="M3.33333 56.6667L3.66667 57.3333L3.33333 56.6667z"/>
<path style="fill:#8d8d8d; stroke:none;" d="M30.3333 56.6667L30.6667 57.3333L30.3333 56.6667M76 56L76 60L77 60L76 56z"/>
<path style="fill:#9b9b9b; stroke:none;" d="M90 56L90 60L91 60L90 56z"/>
<path style="fill:#747474; stroke:none;" d="M123 56L123 61L124 61L123 56z"/>
<path style="fill:#383838; stroke:none;" d="M183 56L181 68L182 68L183 56z"/>
<path style="fill:#626262; stroke:none;" d="M662 56L662 61L663 61L662 56z"/>
<path style="fill:#010101; stroke:none;" d="M824 108L824 114L838 114L849 57L835 57L834 64C829.555 59.7611 825.362 56.36 819 56.0401C795.192 54.843 780.559 82.6852 789.729 104C796.097 118.802 813.737 117.339 824 108z"/>
<path style="fill:#bcbcbc; stroke:none;" d="M137 57L137 61L138 61L137 57z"/>
<path style="fill:#4d4d4d; stroke:none;" d="M291 57L291 62L292 62L291 57z"/>
<path style="fill:#626262; stroke:none;" d="M305 57L305 60L306 60L305 57z"/>
<path style="fill:#010101; stroke:none;" d="M320 57L309 114L323 114L334 57L320 57z"/>
<path style="fill:#747474; stroke:none;" d="M540 57L540 65L541 65L540 57z"/>
<path style="fill:#010101; stroke:none;" d="M541 57L544 114L560 114C563.208 102.865 572.184 82.5574 581 75L583 114L597.502 112.972L606.247 98L626 57L611.638 58.0278L606.336 68L592 95L589 57L576.648 58.027L556 94L554 57L541 57z"/>
<path style="fill:#b6b6b6; stroke:none;" d="M554 57L554 64L555 64L554 57z"/>
<path style="fill:#3d3d3d; stroke:none;" d="M589 57L590 77L591 77L589 57z"/>
<path style="fill:#747474; stroke:none;" d="M706 57L706 62L707 62L706 57M901 57L901 61L902 61L901 57M16.3333 58.6667L16.6667 59.3333L16.3333 58.6667z"/>
<path style="fill:#b2b2b2; stroke:none;" d="M428 58L430 63L428 58M362 59L362 64L363 64L362 59z"/>
<path style="fill:#7d7d7d; stroke:none;" d="M915 59L915 62L916 62L915 59z"/>
<path style="fill:#747474; stroke:none;" d="M17 60L17 61L20 61L17 60z"/>
<path style="fill:#a2a2a2; stroke:none;" d="M36 60L36 61L46 61L36 60z"/>
<path style="fill:#4d4d4d; stroke:none;" d="M348 60L346 72L347 72L348 60z"/>
<path style="fill:#6c6c6c; stroke:none;" d="M848 60L848 63L849 63L848 60z"/>
<path style="fill:#010101; stroke:none;" d="M70 91L71 96L76 96L74 84L80 79C78.1043 84.3223 80.3275 88.8641 79.115 93.9606C77.8071 99.4578 68.0455 109.079 73.0131 115.377C75.5316 118.57 77.7468 113.971 78.4059 111.981C80.3926 105.981 81.9818 100.338 82 94C86.9797 100.736 85 109.013 85 117C96.7904 115.05 90.202 92.0492 90.0147 84C89.9406 80.8176 91.2514 74.2888 88.3966 72.0278C86.2159 70.3006 82.5621 71.2093 80 70.7261C71.9564 69.209 65.2437 66.8341 64 78L55 78L55 79C63.7492 79.6538 70.3737 88.7725 59 92.3472C47.2161 96.0509 27.3086 93.9799 15 92.9059C3.33361 91.8878 0.411952 79.5415 13 77C11.8915 65.2001 18.6802 69.7712 26 69.412C31.4225 69.146 35.1277 63.3707 41 63.3704C49.6703 63.3698 53.666 71.766 61 74C58.621 56.3494 36.8354 62.2357 26 64.5509C20.7582 65.6709 15.9029 62.3554 11.1481 66.4336C4.39183 72.2287 -5.78492 87.7297 6.01543 93.821C10.4878 96.1296 17.1185 95 22 95L43 95C52.542 95 61.8045 96.4907 70 91z"/>
<path style="fill:#6c6c6c; stroke:none;" d="M46 61L46 62L49 62L46 61z"/>
<path style="fill:#8d8d8d; stroke:none;" d="M89.3333 61.6667L89.6667 62.3333L89.3333 61.6667z"/>
<path style="fill:#595959; stroke:none;" d="M49 62L49 63L52 63L49 62z"/>
<path style="fill:#626262; stroke:none;" d="M573.333 62.6667L573.667 63.3333L573.333 62.6667z"/>
<path style="fill:#4d4d4d; stroke:none;" d="M38 63L38 64L44 64L38 63z"/>
<path style="fill:#8d8d8d; stroke:none;" d="M52.6667 63.3333L53.3333 63.6667L52.6667 63.3333z"/>
<path style="fill:#b6b6b6; stroke:none;" d="M197 63L197 67L198 67L197 63z"/>
<path style="fill:#969696; stroke:none;" d="M396.333 63.6667L396.667 64.3333L396.333 63.6667z"/>
<path style="fill:#6c6c6c; stroke:none;" d="M705.333 63.6667L705.667 64.3333L705.333 63.6667z"/>
<path style="fill:#8d8d8d; stroke:none;" d="M899.667 63.3333L900.333 63.6667L899.667 63.3333z"/>
<path style="fill:#595959; stroke:none;" d="M1.33333 64.6667L1.66667 65.3333L1.33333 64.6667z"/>
<path style="fill:#747474; stroke:none;" d="M242.333 64.6667L242.667 65.3333L242.333 64.6667z"/>
<path style="fill:#464646; stroke:none;" d="M554 64L554 77L555 77L554 64z"/>
<path style="fill:#878787; stroke:none;" d="M914 64L914 67L915 67L914 64z"/>
<path style="fill:#525252; stroke:none;" d="M318 65L318 70L319 70L318 65z"/>
<path style="fill:#acacac; stroke:none;" d="M397 65L397 72L398 72L397 65z"/>
<path style="fill:#595959; stroke:none;" d="M607.333 65.6667L607.667 66.3333L607.333 65.6667z"/>
<path style="fill:#7d7d7d; stroke:none;" d="M847 65L847 68L848 68L847 65z"/>
<path style="fill:#929292; stroke:none;" d="M4 67L4 73L5 73L4 67z"/>
<path style="fill:#747474; stroke:none;" d="M660 67L660 70L661 70L660 67z"/>
<path style="fill:#8d8d8d; stroke:none;" d="M0.333333 68.6667L0.666667 69.3333L0.333333 68.6667z"/>
<path style="fill:#010101; stroke:none;" d="M123 90C122.967 93.9742 122.836 97.6094 120.487 101C118.726 103.541 113.7 107.073 114.752 110.677C115.985 114.906 121.471 110.385 122.956 108.941C127.551 104.474 128.734 99.1879 129 93C134.071 98.8046 128.033 112.7 132.585 115.914C137.381 119.3 138.444 107.287 138.713 105C140.007 93.996 132.899 87.7897 128 79C134.779 85.755 139.485 87.9937 149 88C148.439 80.967 137.93 79.7729 133 75L137 76C136.003 70.023 131.839 71.6388 127 70.7261C123.328 70.0335 119.832 67.1479 116.044 69.0432C104.313 74.9131 112.471 89.9628 123 90z"/>
<path style="fill:#626262; stroke:none;" d="M180 68L180 72L181 72L180 68z"/>
<path style="fill:#666666; stroke:none;" d="M196 68L196 72L217 72L217 71C210.331 71 201.153 72.9193 196 68z"/>
<path style="fill:#4d4d4d; stroke:none;" d="M270 68L270 69L279 69L270 68M369 68L369 69L377 69L369 68M434 68L434 69L442 69L434 68M498 68L498 69L506 69L498 68z"/>
<path style="fill:#666666; stroke:none;" d="M675 68L675 72L697 72L697 71C690.137 71 680.298 73.0574 675 68z"/>
<path style="fill:#6c6c6c; stroke:none;" d="M720.333 68.6667L720.667 69.3333L720.333 68.6667z"/>
<path style="fill:#4d4d4d; stroke:none;" d="M749 68L749 69L757 69L749 68z"/>
<path style="fill:#6c6c6c; stroke:none;" d="M778.333 68.6667L778.667 69.3333L778.333 68.6667z"/>
<path style="fill:#4d4d4d; stroke:none;" d="M814 68L814 69L822 69L814 68M881 68L881 69L889 69L881 68z"/>
<path style="fill:#bcbcbc; stroke:none;" d="M913 68L913 72L914 72L913 68z"/>
<path style="fill:#d0d0d0; stroke:none;" d="M76 69L76 70L87 70L76 69M123 69L123 70L134 70L123 69z"/>
<path style="fill:#ffffff; stroke:none;" d="M269.001 69.7423C253.111 75.841 256.288 108.157 275.996 100.867C291.493 95.1339 291.059 61.2758 269.001 69.7423z"/>
<path style="fill:#7d7d7d; stroke:none;" d="M279.667 69.3333L280.333 69.6667L279.667 69.3333z"/>
<path style="fill:#878787; stroke:none;" d="M367.667 69.3333L368.333 69.6667L367.667 69.3333z"/>
<path style="fill:#626262; stroke:none;" d="M377.667 69.3333L378.333 69.6667L377.667 69.3333z"/>
<path style="fill:#ffffff; stroke:none;" d="M432.001 69.7423C417.518 75.3118 417.404 108.92 438.996 101.03C456.133 94.7681 452.598 61.8213 432.001 69.7423z"/>
<path style="fill:#626262; stroke:none;" d="M464 69L464 73L465 73L464 69z"/>
<path style="fill:#747474; stroke:none;" d="M496.667 69.3333L497.333 69.6667L496.667 69.3333z"/>
<path style="fill:#ffffff; stroke:none;" d="M498 69.5725C480.926 74.4445 483.627 107.593 504 101.196C520.621 95.9772 519.097 63.5526 498 69.5725z"/>
<path style="fill:#9b9b9b; stroke:none;" d="M506.667 69.3333L507.333 69.6667L506.667 69.3333z"/>
<path style="fill:#525252; stroke:none;" d="M541 69L541 75L542 75L541 69z"/>
<path style="fill:#ffffff; stroke:none;" d="M747.015 69.858C730.923 76.5377 735.096 108.667 754.996 101.005C772.425 94.2951 768.028 61.1353 747.015 69.858z"/>
<path style="fill:#878787; stroke:none;" d="M757.667 69.3333L758.333 69.6667L757.667 69.3333z"/>
<path style="fill:#ffffff; stroke:none;" d="M812.039 69.9383C796.315 77.0361 801.518 109.853 820.996 100.427C835.519 93.3994 833.207 60.3834 812.039 69.9383z"/>
<path style="fill:#a2a2a2; stroke:none;" d="M822.667 69.3333L823.333 69.6667L822.667 69.3333z"/>
<path style="fill:#a6a6a6; stroke:none;" d="M846 69L846 73L847 73L846 69z"/>
<path style="fill:#595959; stroke:none;" d="M859.333 69.6667L859.667 70.3333L859.333 69.6667z"/>
<path style="fill:#ffffff; stroke:none;" d="M879.004 69.7423C862.604 76.0843 867.173 109.117 886.999 100.772C902.119 94.4072 900.957 61.2528 879.004 69.7423z"/>
<path style="fill:#8d8d8d; stroke:none;" d="M889.667 69.3333L890.333 69.6667L889.667 69.3333z"/>
<path style="fill:#acacac; stroke:none;" d="M12 70L12 74L13 74L12 70z"/>
<path style="fill:#a2a2a2; stroke:none;" d="M24 70L24 71L27 71L24 70z"/>
<path style="fill:#414141; stroke:none;" d="M77 70L77 71L88 71L77 70M124 70L124 71L135 71L124 70z"/>
<path style="fill:#a2a2a2; stroke:none;" d="M217 70L217 71L220 71L217 70z"/>
<path style="fill:#565656; stroke:none;" d="M317 70L316 78L317 78L317 70z"/>
<path style="fill:#878787; stroke:none;" d="M697 70L697 71L700 71L697 70z"/>
<path style="fill:#8d8d8d; stroke:none;" d="M779.333 70.6667L779.667 71.3333L779.333 70.6667z"/>
<path style="fill:#a2a2a2; stroke:none;" d="M61 71L61 74L62 74L61 71z"/>
<path style="fill:#747474; stroke:none;" d="M247.333 72.6667L247.667 73.3333L247.333 72.6667z"/>
<path style="fill:#b2b2b2; stroke:none;" d="M591 72L591 80L592 80L591 72z"/>
<path style="fill:#a2a2a2; stroke:none;" d="M1 73L1 74L4 74L1 73z"/>
<path style="fill:#878787; stroke:none;" d="M90 73L90 90L91 90L90 73z"/>
<path style="fill:#b2b2b2; stroke:none;" d="M137 73L133 75C135.535 77.2941 138.291 76.7875 137 73z"/>
<path style="fill:#565656; stroke:none;" d="M179 73L179 78L180 78L179 73z"/>
<path style="fill:#4d4d4d; stroke:none;" d="M345 73L345 77L346 77L345 73z"/>
<path style="fill:#666666; stroke:none;" d="M857.333 73.6667L857.667 74.3333L857.333 73.6667z"/>
<path style="fill:#969696; stroke:none;" d="M13.3333 74.6667L13.6667 75.3333L13.3333 74.6667M246.333 74.6667L246.667 75.3333L246.333 74.6667z"/>
<path style="fill:#bcbcbc; stroke:none;" d="M465 74L465 83L466 83L465 74z"/>
<path style="fill:#b6b6b6; stroke:none;" d="M845 74L845 78L846 78L845 74z"/>
<path style="fill:#d0d0d0; stroke:none;" d="M68 81L75 75L68 81z"/>
<path style="fill:#525252; stroke:none;" d="M287 75L287 79L288 79L287 75z"/>
<path style="fill:#8d8d8d; stroke:none;" d="M541 75L541 82L542 82L541 75z"/>
<path style="fill:#7d7d7d; stroke:none;" d="M580 75L580 85L581 85L580 75z"/>
<path style="fill:#747474; stroke:none;" d="M602.333 75.6667L602.667 76.3333L602.333 75.6667z"/>
<path style="fill:#969696; stroke:none;" d="M110 76L110 82L111 82L110 76z"/>
<path style="fill:#acacac; stroke:none;" d="M515 76L515 87L516 87L515 76z"/>
<path style="fill:#828282; stroke:none;" d="M789.333 76.6667L789.667 77.3333L789.333 76.6667z"/>
<path style="fill:#3d3d3d; stroke:none;" d="M54 77C54.7963 80.7158 57.6373 80 61 80L61 79L56 77L54 77z"/>
<path style="fill:#6c6c6c; stroke:none;" d="M62.6667 77.3333L63.3333 77.6667L62.6667 77.3333z"/>
<path style="fill:#7d7d7d; stroke:none;" d="M530 77L530 85L531 85L530 77z"/>
<path style="fill:#6c6c6c; stroke:none;" d="M555 77L555 90L556 90L555 77z"/>
<path style="fill:#747474; stroke:none;" d="M601.333 77.6667L601.667 78.3333L601.333 77.6667z"/>
<path style="fill:#6c6c6c; stroke:none;" d="M766 77L765 90L766 90L766 77z"/>
<path style="fill:#c9c9c9; stroke:none;" d="M781 77L781 86L782 86L781 77z"/>
<path style="fill:#565656; stroke:none;" d="M897 77L896 86L897 86L897 77z"/>
<path style="fill:#b6b6b6; stroke:none;" d="M911 77L911 81L912 81L911 77z"/>
<path style="fill:#6c6c6c; stroke:none;" d="M410 78L410 81L411 81L410 78z"/>
<path style="fill:#626262; stroke:none;" d="M450 78L450 88L451 88L450 78z"/>
<path style="fill:#565656; stroke:none;" d="M830 78L830 83L831 83L830 78z"/>
<path style="fill:#7d7d7d; stroke:none;" d="M870.333 78.6667L870.667 79.3333L870.333 78.6667z"/>
<path style="fill:#acacac; stroke:none;" d="M79 79L78 92L79 92L79 79z"/>
<path style="fill:#bcbcbc; stroke:none;" d="M128 79L131 84L128 79z"/>
<path style="fill:#a2a2a2; stroke:none;" d="M788 79L788 82L789 82L788 79z"/>
<path style="fill:#747474; stroke:none;" d="M315 80L315 83L316 83L315 80z"/>
<path style="fill:#b2b2b2; stroke:none;" d="M329 80L329 84L330 84L329 80z"/>
<path style="fill:#464646; stroke:none;" d="M464 80L464 86L465 86L464 80z"/>
<path style="fill:#525252; stroke:none;" d="M591 80C591.003 84.6402 590.241 91.7658 594 95L591 80z"/>
<path style="fill:#a2a2a2; stroke:none;" d="M142 81L142 82L145 82L142 81z"/>
<path style="fill:#626262; stroke:none;" d="M409 81L409 86L410 86L409 81z"/>
<path style="fill:#4d4d4d; stroke:none;" d="M722 81L722 93L723 93L722 81z"/>
<path style="fill:#9b9b9b; stroke:none;" d="M471 82L471 94L472 94L471 82z"/>
<path style="fill:#383838; stroke:none;" d="M868 82L868 93L869 93L868 82z"/>
<path style="fill:#4d4d4d; stroke:none;" d="M3 83L3 87L4 87L3 83z"/>
<path style="fill:#6c6c6c; stroke:none;" d="M64.6667 83.3333L65.3333 83.6667L64.6667 83.3333z"/>
<path style="fill:#595959; stroke:none;" d="M258 83L258 93L259 93L258 83z"/>
<path style="fill:#7d7d7d; stroke:none;" d="M343 83L343 86L344 86L343 83M380 83L380 86L381 86L380 83z"/>
<path style="fill:#8d8d8d; stroke:none;" d="M486 83L486 92L487 92L486 83z"/>
<path style="fill:#acacac; stroke:none;" d="M802 83L802 93L803 93L802 83z"/>
<path style="fill:#6c6c6c; stroke:none;" d="M74.3333 84.6667L74.6667 85.3333L74.3333 84.6667z"/>
<path style="fill:#bcbcbc; stroke:none;" d="M243 84L243 96L244 96L243 84z"/>
<path style="fill:#747474; stroke:none;" d="M787 84L787 97L788 97L787 84z"/>
<path style="fill:#626262; stroke:none;" d="M66 85L66 88L67 88L66 85z"/>
<path style="fill:#6c6c6c; stroke:none;" d="M299 85L299 88L300 88L299 85z"/>
<path style="fill:#c4c4c4; stroke:none;" d="M556 85L558 94L556 85z"/>
<path style="fill:#4d4d4d; stroke:none;" d="M656 85L656 89L657 89L656 85z"/>
<path style="fill:#626262; stroke:none;" d="M192 86L192 89L193 89L192 86z"/>
<path style="fill:#747474; stroke:none;" d="M206.333 86.6667L206.667 87.3333L206.333 86.6667z"/>
<path style="fill:#6c6c6c; stroke:none;" d="M342 86L342 90L343 90L342 86M379 86L379 90L380 90L379 86z"/>
<path style="fill:#565656; stroke:none;" d="M408 86L408 90L409 90L408 86z"/>
<path style="fill:#7d7d7d; stroke:none;" d="M542 86L542 91L543 91L542 86z"/>
<path style="fill:#595959; stroke:none;" d="M176 87L176 91L177 91L176 87z"/>
<path style="fill:#878787; stroke:none;" d="M572.333 87.6667L572.667 88.3333L572.333 87.6667z"/>
<path style="fill:#565656; stroke:none;" d="M828 87L828 91L829 91L828 87z"/>
<path style="fill:#929292; stroke:none;" d="M144 88L144 89L148 89L144 88z"/>
<path style="fill:#666666; stroke:none;" d="M223.333 88.6667L223.667 89.3333L223.333 88.6667z"/>
<path style="fill:#828282; stroke:none;" d="M393 88L393 91L394 91L393 88z"/>
<path style="fill:#8d8d8d; stroke:none;" d="M135 89L135 90L137 96L138 96L138 89L135 89z"/>
<path style="fill:#6c6c6c; stroke:none;" d="M207.333 89.6667L207.667 90.3333L207.333 89.6667z"/>
<path style="fill:#7d7d7d; stroke:none;" d="M514.333 89.6667L514.667 90.3333L514.333 89.6667z"/>
<path style="fill:#878787; stroke:none;" d="M571.333 89.6667L571.667 90.3333L571.333 89.6667z"/>
<path style="fill:#747474; stroke:none;" d="M671 89L671 92L672 92L671 89z"/>
<path style="fill:#595959; stroke:none;" d="M655 90L654 98L655 98L655 90z"/>
<path style="fill:#626262; stroke:none;" d="M779 90L779 93L780 93L779 90z"/>
<path style="fill:#8d8d8d; stroke:none;" d="M76 91L76 95L77 95L76 91z"/>
<path style="fill:#9b9b9b; stroke:none;" d="M11 92L11 93L60 93C47.348 87.691 24.7879 92 11 92z"/>
<path style="fill:#747474; stroke:none;" d="M70 92L70 95L71 95L70 92M79 92L79 96L80 96L79 92z"/>
<path style="fill:#9b9b9b; stroke:none;" d="M90.3333 92.6667L90.6667 93.3333L90.3333 92.6667z"/>
<path style="fill:#666666; stroke:none;" d="M208.333 92.6667L208.667 93.3333L208.333 92.6667z"/>
<path style="fill:#b2b2b2; stroke:none;" d="M392 92L392 96L393 96L392 92z"/>
<path style="fill:#bcbcbc; stroke:none;" d="M421 92L421 97L422 97L421 92z"/>
<path style="fill:#7d7d7d; stroke:none;" d="M528.333 92.6667L528.667 93.3333L528.333 92.6667z"/>
<path style="fill:#6c6c6c; stroke:none;" d="M129.667 93.3333L130.333 93.6667L129.667 93.3333z"/>
<path style="fill:#747474; stroke:none;" d="M175 93L175 96L176 96L175 93z"/>
<path style="fill:#666666; stroke:none;" d="M259.333 93.6667L259.667 94.3333L259.333 93.6667z"/>
<path style="fill:#3d3d3d; stroke:none;" d="M341 93L340 101L341 101L341 93z"/>
<path style="fill:#6c6c6c; stroke:none;" d="M462.333 93.6667L462.667 94.3333L462.333 93.6667z"/>
<path style="fill:#a2a2a2; stroke:none;" d="M487.333 93.6667L487.667 94.3333L487.333 93.6667z"/>
<path style="fill:#8d8d8d; stroke:none;" d="M581 93L581 100L582 100L581 93z"/>
<path style="fill:#595959; stroke:none;" d="M297 94L297 97L298 97L297 94z"/>
<path style="fill:#7d7d7d; stroke:none;" d="M326 94L326 97L327 97L326 94z"/>
<path style="fill:#6c6c6c; stroke:none;" d="M803.333 94.6667L803.667 95.3333L803.333 94.6667z"/>
<path style="fill:#252525; stroke:none;" d="M9 95L9 96L61 96L44 95L9 95z"/>
<path style="fill:#a2a2a2; stroke:none;" d="M61.6667 95.3333L62.3333 95.6667L61.6667 95.3333z"/>
<path style="fill:#626262; stroke:none;" d="M209.333 95.6667L209.667 96.3333L209.333 95.6667z"/>
<path style="fill:#7d7d7d; stroke:none;" d="M472 95L472 98L473 98L472 95z"/>
<path style="fill:#6c6c6c; stroke:none;" d="M705.333 95.6667L705.667 96.3333L705.333 95.6667z"/>
<path style="fill:#d0d0d0; stroke:none;" d="M14 96L14 97L59 97C47.2988 92.09 26.742 96 14 96z"/>
<path style="fill:#7d7d7d; stroke:none;" d="M72 96L72 97L75 97L72 96z"/>
<path style="fill:#bcbcbc; stroke:none;" d="M354 96L354 100L355 100L354 96z"/>
<path style="fill:#878787; stroke:none;" d="M461.333 96.6667L461.667 97.3333L461.333 96.6667z"/>
<path style="fill:#929292; stroke:none;" d="M777.333 96.6667L777.667 97.3333L777.333 96.6667z"/>
<path style="fill:#bcbcbc; stroke:none;" d="M907 96L907 100L908 100L907 96z"/>
<path style="fill:#747474; stroke:none;" d="M689.333 97.6667L689.667 98.3333L689.333 97.6667z"/>
<path style="fill:#8d8d8d; stroke:none;" d="M854 97L854 100L855 100L854 97z"/>
<path style="fill:#6c6c6c; stroke:none;" d="M128 98L128 103L129 103L128 98z"/>
<path style="fill:#595959; stroke:none;" d="M210.333 98.6667L210.667 99.3333L210.333 98.6667z"/>
<path style="fill:#4d4d4d; stroke:none;" d="M311 98L311 102L312 102L311 98z"/>
<path style="fill:#acacac; stroke:none;" d="M325 98L325 102L326 102L325 98z"/>
<path style="fill:#383838; stroke:none;" d="M377 98L376 107L377 107L377 98z"/>
<path style="fill:#b2b2b2; stroke:none;" d="M669 98L669 102L670 102L669 98z"/>
<path style="fill:#9b9b9b; stroke:none;" d="M776.333 98.6667L776.667 99.3333L776.333 98.6667z"/>
<path style="fill:#b2b2b2; stroke:none;" d="M543 99L543 114L544 114L543 99z"/>
<path style="fill:#565656; stroke:none;" d="M653 99L653 103L654 103L653 99z"/>
<path style="fill:#9b9b9b; stroke:none;" d="M85 100L85 104L86 104L85 100z"/>
<path style="fill:#828282; stroke:none;" d="M132 100L132 104L133 104L132 100z"/>
<path style="fill:#6c6c6c; stroke:none;" d="M690.333 100.667L690.667 101.333L690.333 100.667z"/>
<path style="fill:#a2a2a2; stroke:none;" d="M724.333 100.667L724.667 101.333L724.333 100.667z"/>
<path style="fill:#bcbcbc; stroke:none;" d="M189 101L189 105L190 105L189 101z"/>
<path style="fill:#a2a2a2; stroke:none;" d="M228.333 101.667L228.667 102.333L228.333 101.667z"/>
<path style="fill:#6c6c6c; stroke:none;" d="M245.333 101.667L245.667 102.333L245.333 101.667z"/>
<path style="fill:#464646; stroke:none;" d="M339 101L339 105L340 105L339 101z"/>
<path style="fill:#595959; stroke:none;" d="M390 101L390 104L391 104L390 101z"/>
<path style="fill:#969696; stroke:none;" d="M855.333 101.667L855.667 102.333L855.333 101.667z"/>
<path style="fill:#bcbcbc; stroke:none;" d="M839 102L839 106L840 106L839 102z"/>
<path style="fill:#565656; stroke:none;" d="M310 103L309 111L310 111L310 103z"/>
<path style="fill:#b6b6b6; stroke:none;" d="M324 103L324 107L325 107L324 103z"/>
<path style="fill:#6c6c6c; stroke:none;" d="M691.333 103.667L691.667 104.333L691.333 103.667z"/>
<path style="fill:#010101; stroke:none;" d="M66 104L59 138L70 138L74 120C67.3361 115.152 68.6922 111.095 71 104L66 104z"/>
<path style="fill:#bcbcbc; stroke:none;" d="M80 104L79 111L80 111L80 104z"/>
<path style="fill:#3d3d3d; stroke:none;" d="M95 104L94 115L95 115L97 104L95 104z"/>
<path style="fill:#010101; stroke:none;" d="M104 104L97 138C117.437 137.998 107.475 115.936 114 104L104 104z"/>
<path style="fill:#747474; stroke:none;" d="M142.333 104.667L142.667 105.333L142.333 104.667z"/>
<path style="fill:#010101; stroke:none;" d="M134 138L146 138L154 104C151.06 104 146.203 103.115 143.727 105.028C137.269 110.016 136.096 130.32 134 138z"/>
<path style="fill:#969696; stroke:none;" d="M229.333 104.667L229.667 105.333L229.333 104.667z"/>
<path style="fill:#414141; stroke:none;" d="M652 104L652 108L653 108L652 104z"/>
<path style="fill:#929292; stroke:none;" d="M91 105L91 109L92 109L91 105z"/>
<path style="fill:#595959; stroke:none;" d="M338 105L338 110L339 110L338 105z"/>
<path style="fill:#626262; stroke:none;" d="M352 105L352 108L353 108L352 105z"/>
<path style="fill:#a2a2a2; stroke:none;" d="M582 105L582 112L583 112L582 105z"/>
<path style="fill:#b6b6b6; stroke:none;" d="M905 105L905 109L906 109L905 105z"/>
<path style="fill:#878787; stroke:none;" d="M188 106L188 109L189 109L188 106z"/>
<path style="fill:#595959; stroke:none;" d="M404 106L403 114L404 114L404 106z"/>
<path style="fill:#969696; stroke:none;" d="M601.333 106.667L601.667 107.333L601.333 106.667z"/>
<path style="fill:#6c6c6c; stroke:none;" d="M692.333 106.667L692.667 107.333L692.333 106.667z"/>
<path style="fill:#626262; stroke:none;" d="M838 106L838 109L839 109L838 106z"/>
<path style="fill:#595959; stroke:none;" d="M128 107L129 110L128 107z"/>
<path style="fill:#8d8d8d; stroke:none;" d="M230.333 107.667L230.667 108.333L230.333 107.667z"/>
<path style="fill:#a6a6a6; stroke:none;" d="M280 107L281 110L280 107z"/>
<path style="fill:#595959; stroke:none;" d="M323 107L323 110L324 110L323 107z"/>
<path style="fill:#9b9b9b; stroke:none;" d="M562.333 107.667L562.667 108.333L562.333 107.667z"/>
<path style="fill:#666666; stroke:none;" d="M69 108L69 111L70 111L69 108M141.333 108.667L141.667 109.333L141.333 108.667z"/>
<path style="fill:#7d7d7d; stroke:none;" d="M213.333 108.667L213.667 109.333L213.333 108.667z"/>
<path style="fill:#969696; stroke:none;" d="M600.333 108.667L600.667 109.333L600.333 108.667z"/>
<path style="fill:#9b9b9b; stroke:none;" d="M710.333 108.667L710.667 109.333L710.333 108.667z"/>
<path style="fill:#6c6c6c; stroke:none;" d="M889 108L890 114L891 114L889 108z"/>
<path style="fill:#565656; stroke:none;" d="M84 109L84 116L85 116L84 109z"/>
<path style="fill:#010101; stroke:none;" d="M115 138L127 138L130.542 122L128 109C118.68 113.545 117.525 128.744 115 138z"/>
<path style="fill:#595959; stroke:none;" d="M417 109L417 112L418 112L417 109z"/>
<path style="fill:#a2a2a2; stroke:none;" d="M561.333 109.667L561.667 110.333L561.333 109.667z"/>
<path style="fill:#626262; stroke:none;" d="M693.333 109.667L693.667 110.333L693.333 109.667z"/>
<path style="fill:#747474; stroke:none;" d="M187 110L187 113L188 113L187 110M374 110L374 114L375 114L374 110z"/>
<path style="fill:#595959; stroke:none;" d="M388 110L388 113L389 113L388 110z"/>
<path style="fill:#969696; stroke:none;" d="M599.333 110.667L599.667 111.333L599.333 110.667z"/>
<path style="fill:#828282; stroke:none;" d="M904 110L904 113L905 113L904 110z"/>
<path style="fill:#595959; stroke:none;" d="M68 111L68 116L69 116L68 111z"/>
<path style="fill:#666666; stroke:none;" d="M78 111L78 114L79 114L78 111z"/>
<path style="fill:#747474; stroke:none;" d="M102.333 111.667L102.667 112.333L102.333 111.667z"/>
<path style="fill:#a2a2a2; stroke:none;" d="M560.333 111.667L560.667 112.333L560.333 111.667z"/>
<path style="fill:#929292; stroke:none;" d="M711 111L711 114L712 114L711 111z"/>
<path style="fill:#a2a2a2; stroke:none;" d="M71 112L71 115L72 115L71 112z"/>
<path style="fill:#6c6c6c; stroke:none;" d="M137 112L137 115L138 115L137 112z"/>
<path style="fill:#7d7d7d; stroke:none;" d="M90.3333 113.667L90.6667 114.333L90.3333 113.667z"/>
<path style="fill:#8d8d8d; stroke:none;" d="M93 113L95 116L93 113z"/>
<path style="fill:#a2a2a2; stroke:none;" d="M116.667 113.333L117.333 113.667L116.667 113.333z"/>
<path style="fill:#4d4d4d; stroke:none;" d="M63 114L60 130L61 130L63 114M259 115L259 116L267 116L259 115z"/>
<path style="fill:#525252; stroke:none;" d="M431 115L431 116L441 116L431 115z"/>
<path style="fill:#4d4d4d; stroke:none;" d="M492 115L492 116L504 116L492 115M745 115L745 116L754 116L745 115M803 115L803 116L810 116L803 115M869 115L869 116L877 116L869 115z"/>
<path style="fill:#010101; stroke:none;" d="M93 116C89.0666 119.931 86.0699 119.539 81 118L78 138C88.2364 137.999 96.2036 126.835 93 116z"/>
<path style="fill:#8d8d8d; stroke:none;" d="M112.333 118.667L112.667 119.333L112.333 118.667z"/>
<path style="fill:#414141; stroke:none;" d="M119 119L118 126L119 126L119 119z"/>
<path style="fill:#9b9b9b; stroke:none;" d="M150.333 119.667L150.667 120.333L150.333 119.667z"/>
<path style="fill:#565656; stroke:none;" d="M80 122L78 132L79 132L80 122z"/>
<path style="fill:#464646; stroke:none;" d="M137 123L135 134L136 134L137 123z"/>
<path style="fill:#7d7d7d; stroke:none;" d="M91.3333 125.667L91.6667 126.333L91.3333 125.667z"/>
<path style="fill:#565656; stroke:none;" d="M98 126L97 133L98 133L98 126z"/>
<path style="fill:#464646; stroke:none;" d="M117 126L117 131L118 131L117 126z"/>
<path style="fill:#626262; stroke:none;" d="M71.3333 128.667L71.6667 129.333L71.3333 128.667z"/>
<path style="fill:#595959; stroke:none;" d="M169 128L169 129L908 129L908 140L909 140L909 128L169 128z"/>
<path style="fill:#b2b2b2; stroke:none;" d="M90 129L88 138L89 138L90 129z"/>
<path style="fill:#c4c4c4; stroke:none;" d="M109 129L108 137L109 137L109 129z"/>
<path style="fill:#010101; stroke:none;" d="M169 129L169 140L908 140L908 129L169 129z"/>
<path style="fill:#acacac; stroke:none;" d="M116 131L115 136L116 136L116 131z"/>
<path style="fill:#b2b2b2; stroke:none;" d="M70 132L70 136L71 136L70 132z"/>
<path style="fill:#595959; stroke:none;" d="M58 135L58 139L69 139L69 138L58 135M77 135L77 139L88 139L88 138L77 135M96 135L96 139L107 139L107 138L96 135z"/>
<path style="fill:#626262; stroke:none;" d="M107.333 136.667L107.667 137.333L107.333 136.667z"/>
<path style="fill:#595959; stroke:none;" d="M116 138L116 139L126 139L116 138M135 138L135 139L145 139L135 138z"/>
<path style="fill:#e7e7e7; stroke:none;" d="M169 140L169 141L909 141L889 140L845 140L694 140L169 140z"/>
</svg>
